<svg width="48" height="48" viewBox="0 0 48 48" fill="none" xmlns="http://www.w3.org/2000/svg">
<g clip-path="url(#clip0_285_2350)">
<g clip-path="url(#clip1_285_2350)">
<path fill-rule="evenodd" clip-rule="evenodd" d="M13.0761 27.6469C13.0762 26.0102 13.4347 24.3941 14.1256 22.9152C14.8164 21.4362 15.8225 20.1314 17.071 19.095C11.7509 17.1924 4.00992 13.4018 1.76132 7C1.76132 7 1.2829 13.4843 5.1103 20.7403C5.1103 20.7403 9.18171 23.4486 10.8084 27.0984L7.64598 25.1182C8.44514 27.7204 9.42517 30.262 10.5787 32.7236C12.4159 36.3103 15.8414 39.0331 15.8414 39.0331C15.8414 39.0331 14.2483 34.1797 16.1141 35.3447C16.1785 35.3832 16.2408 35.4254 16.3007 35.4707C15.2773 34.4444 14.4649 33.2222 13.9106 31.875C13.3563 30.5279 13.071 29.0824 13.0713 27.6226L13.0761 27.6469ZM30.8272 19.0464C31.9939 20.0026 32.953 21.193 33.6447 22.5429C34.3364 23.8929 34.7456 25.3734 34.8468 26.8914C34.948 28.4094 34.7387 29.9322 34.2322 31.3643C33.7257 32.7964 32.9328 34.1069 31.9035 35.2135C33.2861 34.7718 31.9035 39.0382 31.9035 39.0382C31.9035 39.0382 35.3293 36.3054 37.1664 32.7285C38.314 30.2661 39.2894 27.7246 40.0848 25.123L36.9463 27.0644C38.6016 23.4389 42.6347 20.7403 42.6347 20.7403C46.4381 13.4843 45.9836 7 45.9836 7C43.7685 13.3435 36.1424 17.1244 30.8272 19.0464ZM31.4205 27.6468C31.4205 31.8151 28.0896 35.194 23.9809 35.194C19.8722 35.194 16.5414 31.8151 16.5414 27.6468C16.5414 23.4786 19.8722 20.0996 23.9809 20.0996C28.0896 20.0996 31.4205 23.4786 31.4205 27.6468Z" fill="#51484A"/>
</g>
</g>
<defs>
<clipPath id="clip0_285_2350">
<rect width="48" height="48" fill="white"/>
</clipPath>
<clipPath id="clip1_285_2350">
<rect width="47" height="34" fill="white" transform="translate(-1 7)"/>
</clipPath>
</defs>
</svg>
